<?xml version="1.0" encoding="utf-8" ?>
<svg baseProfile="tiny" height="100%" version="1.2" width="100%" xmlns="http://www.w3.org/2000/svg" xmlns:ev="http://www.w3.org/2001/xml-events" xmlns:xlink="http://www.w3.org/1999/xlink"><defs /><path d="M 410 777 L 410 842 L 423 842 L 423 821 L 424 820 L 439 820 L 440 819 L 443 819 L 444 818 L 446 818 L 447 817 L 448 817 L 449 816 L 450 816 L 456 810 L 456 809 L 458 807 L 458 804 L 459 803 L 459 794 L 458 793 L 458 791 L 457 790 L 457 789 L 456 788 L 456 787 L 450 781 L 449 781 L 448 780 L 447 780 L 446 779 L 445 779 L 444 778 L 441 778 L 440 777 Z" fill="black" /><path d="M 582 776 L 581 777 L 579 777 L 578 778 L 576 778 L 575 779 L 574 779 L 571 782 L 570 782 L 569 783 L 569 784 L 567 786 L 567 787 L 566 788 L 566 789 L 565 790 L 565 800 L 566 801 L 566 802 L 567 803 L 567 804 L 571 808 L 572 808 L 573 809 L 574 809 L 575 810 L 576 810 L 577 811 L 578 811 L 579 812 L 581 812 L 582 813 L 585 813 L 586 814 L 588 814 L 589 815 L 591 815 L 592 816 L 594 816 L 595 817 L 596 817 L 601 822 L 601 826 L 596 831 L 595 831 L 594 832 L 585 832 L 584 831 L 582 831 L 580 829 L 579 829 L 578 828 L 578 827 L 576 825 L 576 823 L 563 823 L 563 825 L 564 826 L 564 828 L 565 829 L 565 830 L 566 831 L 566 832 L 568 834 L 568 835 L 570 837 L 571 837 L 573 839 L 574 839 L 575 840 L 576 840 L 577 841 L 579 841 L 580 842 L 584 842 L 585 843 L 593 843 L 594 842 L 597 842 L 598 841 L 600 841 L 601 840 L 602 840 L 603 839 L 604 839 L 605 838 L 606 838 L 611 833 L 611 832 L 612 831 L 612 830 L 613 829 L 613 825 L 614 824 L 614 821 L 613 820 L 613 818 L 612 817 L 612 816 L 611 815 L 611 814 L 606 809 L 605 809 L 604 808 L 603 808 L 602 807 L 601 807 L 600 806 L 598 806 L 597 805 L 595 805 L 594 804 L 592 804 L 591 803 L 588 803 L 587 802 L 585 802 L 584 801 L 583 801 L 582 800 L 581 800 L 578 797 L 578 792 L 582 788 L 583 788 L 584 787 L 587 787 L 588 786 L 589 786 L 590 787 L 593 787 L 594 788 L 595 788 L 598 791 L 598 792 L 599 793 L 599 794 L 600 795 L 613 795 L 613 794 L 612 793 L 612 790 L 611 789 L 611 788 L 610 787 L 610 786 L 603 779 L 602 779 L 601 778 L 600 778 L 599 777 L 596 777 L 595 776 Z" fill="black" /><path d="M 504 776 L 503 777 L 500 777 L 499 778 L 497 778 L 496 779 L 495 779 L 493 781 L 492 781 L 490 783 L 489 783 L 485 787 L 485 788 L 483 790 L 483 791 L 481 793 L 481 795 L 480 796 L 480 798 L 479 799 L 479 802 L 478 803 L 478 815 L 479 816 L 479 820 L 480 821 L 480 823 L 481 824 L 481 825 L 482 826 L 482 827 L 484 829 L 484 830 L 491 837 L 492 837 L 493 838 L 494 838 L 495 839 L 496 839 L 497 840 L 498 840 L 499 841 L 501 841 L 502 842 L 506 842 L 507 843 L 515 843 L 516 842 L 520 842 L 521 841 L 523 841 L 524 840 L 525 840 L 526 839 L 527 839 L 528 838 L 529 838 L 531 836 L 532 836 L 537 831 L 537 830 L 539 828 L 539 827 L 540 826 L 540 825 L 541 824 L 541 823 L 542 822 L 542 819 L 543 818 L 543 812 L 544 811 L 544 806 L 543 805 L 543 800 L 542 799 L 542 797 L 541 796 L 541 794 L 540 793 L 540 792 L 538 790 L 538 789 L 531 782 L 530 782 L 528 780 L 527 780 L 526 779 L 525 779 L 524 778 L 522 778 L 521 777 L 518 777 L 517 776 Z" fill="black" /><path d="M 654 667 L 654 668 L 655 669 L 654 670 L 654 674 L 655 675 L 655 678 L 654 679 L 655 680 L 655 682 L 654 683 L 654 685 L 655 686 L 655 687 L 654 688 L 655 689 L 654 690 L 654 692 L 655 693 L 654 694 L 655 695 L 654 696 L 654 699 L 655 700 L 655 701 L 654 702 L 655 703 L 654 704 L 654 705 L 655 706 L 654 707 L 654 708 L 655 709 L 655 710 L 654 711 L 655 712 L 655 732 L 654 733 L 654 734 L 655 735 L 655 738 L 654 739 L 654 741 L 653 742 L 653 743 L 652 744 L 651 744 L 650 745 L 643 745 L 642 744 L 641 745 L 641 750 L 642 751 L 642 761 L 655 761 L 656 760 L 659 760 L 660 759 L 661 759 L 662 758 L 663 758 L 669 752 L 669 751 L 670 750 L 670 749 L 671 748 L 671 745 L 672 744 L 672 667 Z" fill="black" /><path d="M 233 667 L 233 668 L 234 669 L 234 670 L 235 671 L 235 673 L 236 674 L 236 675 L 237 676 L 237 678 L 238 679 L 238 681 L 239 682 L 239 683 L 240 684 L 240 686 L 241 687 L 241 688 L 242 689 L 242 691 L 243 692 L 243 694 L 244 695 L 244 696 L 245 697 L 245 699 L 246 700 L 246 701 L 247 702 L 247 704 L 248 705 L 248 706 L 249 707 L 249 709 L 250 710 L 250 712 L 251 713 L 251 714 L 252 715 L 252 717 L 253 718 L 253 719 L 254 720 L 254 722 L 255 723 L 255 724 L 256 725 L 256 727 L 257 728 L 257 729 L 258 730 L 258 732 L 259 733 L 259 736 L 258 737 L 258 739 L 256 741 L 256 742 L 254 744 L 253 744 L 252 745 L 251 745 L 250 746 L 244 746 L 243 745 L 241 745 L 242 746 L 242 761 L 247 761 L 248 762 L 251 762 L 252 761 L 257 761 L 258 760 L 260 760 L 261 759 L 262 759 L 263 758 L 264 758 L 270 752 L 270 751 L 272 749 L 272 748 L 273 747 L 273 746 L 274 745 L 274 743 L 275 742 L 275 741 L 276 740 L 276 738 L 277 737 L 277 735 L 278 734 L 278 732 L 279 731 L 279 730 L 280 729 L 280 727 L 281 726 L 281 724 L 282 723 L 282 721 L 283 720 L 283 719 L 284 718 L 284 716 L 285 715 L 285 713 L 286 712 L 286 710 L 287 709 L 287 708 L 288 707 L 288 705 L 289 704 L 289 702 L 290 701 L 290 699 L 291 698 L 291 697 L 292 696 L 292 694 L 293 693 L 293 691 L 294 690 L 294 688 L 295 687 L 295 685 L 296 684 L 296 683 L 297 682 L 297 680 L 298 679 L 298 677 L 299 676 L 299 674 L 300 673 L 300 672 L 301 671 L 301 669 L 302 668 L 302 667 L 284 667 L 283 668 L 283 670 L 282 671 L 282 673 L 281 674 L 281 676 L 280 677 L 280 679 L 279 680 L 279 682 L 278 683 L 278 685 L 277 686 L 277 688 L 276 689 L 276 691 L 275 692 L 275 694 L 274 695 L 274 697 L 273 698 L 273 700 L 272 701 L 272 703 L 271 704 L 271 706 L 270 707 L 270 710 L 268 712 L 267 711 L 267 709 L 266 708 L 266 706 L 265 705 L 265 703 L 264 702 L 264 700 L 263 699 L 263 697 L 262 696 L 262 694 L 261 693 L 261 691 L 260 690 L 260 688 L 259 687 L 259 685 L 258 684 L 258 682 L 257 681 L 257 679 L 256 678 L 256 676 L 255 675 L 255 673 L 254 672 L 254 670 L 253 669 L 253 668 L 252 667 Z" fill="black" /><path d="M 785 666 L 784 667 L 781 667 L 780 668 L 778 668 L 777 669 L 776 669 L 775 670 L 774 670 L 772 672 L 771 672 L 764 679 L 764 680 L 763 681 L 763 682 L 761 684 L 761 686 L 760 687 L 760 689 L 759 690 L 759 693 L 758 694 L 758 706 L 759 707 L 759 711 L 760 712 L 760 714 L 761 715 L 761 716 L 762 717 L 762 718 L 764 720 L 764 721 L 771 728 L 772 728 L 774 730 L 775 730 L 776 731 L 777 731 L 778 732 L 780 732 L 781 733 L 784 733 L 785 734 L 798 734 L 799 733 L 802 733 L 803 732 L 805 732 L 806 731 L 807 731 L 808 730 L 809 730 L 810 729 L 811 729 L 813 727 L 814 727 L 818 723 L 818 722 L 820 720 L 820 719 L 821 718 L 821 717 L 822 716 L 822 714 L 823 713 L 823 710 L 806 710 L 805 711 L 805 712 L 804 713 L 804 714 L 801 717 L 800 717 L 799 718 L 798 718 L 797 719 L 787 719 L 786 718 L 785 718 L 783 716 L 782 716 L 780 714 L 780 713 L 778 711 L 778 710 L 777 709 L 777 707 L 776 706 L 776 695 L 777 694 L 777 692 L 778 691 L 778 690 L 779 689 L 779 688 L 784 683 L 785 683 L 786 682 L 787 682 L 788 681 L 796 681 L 797 682 L 799 682 L 805 688 L 805 690 L 806 691 L 823 691 L 823 689 L 822 688 L 822 685 L 821 684 L 821 683 L 820 682 L 820 681 L 819 680 L 819 679 L 817 677 L 817 676 L 814 673 L 813 673 L 811 671 L 810 671 L 809 670 L 808 670 L 807 669 L 806 669 L 805 668 L 804 668 L 803 667 L 800 667 L 799 666 Z" fill="black" /><path d="M 711 666 L 710 667 L 707 667 L 706 668 L 704 668 L 703 669 L 702 669 L 701 670 L 700 670 L 698 672 L 697 672 L 690 679 L 690 680 L 689 681 L 689 682 L 688 683 L 688 684 L 687 685 L 687 686 L 686 687 L 686 689 L 685 690 L 685 693 L 684 694 L 684 707 L 685 708 L 685 711 L 686 712 L 686 714 L 687 715 L 687 716 L 688 717 L 688 718 L 690 720 L 690 721 L 696 727 L 697 727 L 699 729 L 700 729 L 702 731 L 704 731 L 705 732 L 706 732 L 707 733 L 710 733 L 711 734 L 724 734 L 725 733 L 728 733 L 729 732 L 730 732 L 731 731 L 733 731 L 735 729 L 736 729 L 739 726 L 740 726 L 742 724 L 742 723 L 744 721 L 744 720 L 746 718 L 746 716 L 747 715 L 747 713 L 732 713 L 731 714 L 731 715 L 728 718 L 727 718 L 726 719 L 725 719 L 724 720 L 721 720 L 720 721 L 716 721 L 715 720 L 712 720 L 711 719 L 710 719 L 709 718 L 708 718 L 704 714 L 704 713 L 703 712 L 703 711 L 702 710 L 702 707 L 701 706 L 701 705 L 702 704 L 748 704 L 749 703 L 749 694 L 748 693 L 748 689 L 747 688 L 747 686 L 746 685 L 746 684 L 745 683 L 745 682 L 743 680 L 743 679 L 735 671 L 734 671 L 733 670 L 732 670 L 731 669 L 730 669 L 729 668 L 728 668 L 727 667 L 724 667 L 723 666 Z" fill="black" /><path d="M 598 666 L 597 667 L 594 667 L 593 668 L 592 668 L 591 669 L 590 669 L 589 670 L 588 670 L 587 671 L 586 671 L 584 673 L 583 673 L 576 680 L 576 681 L 574 683 L 574 684 L 573 685 L 573 686 L 572 687 L 572 689 L 571 690 L 571 694 L 570 695 L 570 705 L 571 706 L 571 709 L 572 710 L 572 712 L 573 713 L 573 715 L 574 716 L 574 717 L 576 719 L 576 720 L 583 727 L 584 727 L 586 729 L 587 729 L 588 730 L 589 730 L 590 731 L 591 731 L 592 732 L 594 732 L 595 733 L 598 733 L 599 734 L 613 734 L 614 733 L 616 733 L 617 732 L 619 732 L 620 731 L 621 731 L 622 730 L 623 730 L 624 729 L 625 729 L 627 727 L 628 727 L 635 720 L 635 719 L 636 718 L 636 717 L 637 716 L 637 715 L 638 714 L 638 713 L 639 712 L 639 710 L 640 709 L 640 705 L 641 704 L 641 696 L 640 695 L 640 691 L 639 690 L 639 688 L 638 687 L 638 685 L 637 684 L 637 683 L 635 681 L 635 680 L 627 672 L 626 672 L 624 670 L 623 670 L 622 669 L 620 669 L 619 668 L 618 668 L 617 667 L 614 667 L 613 666 Z" fill="black" /><path d="M 553 666 L 552 667 L 550 667 L 549 668 L 548 668 L 546 670 L 545 670 L 541 674 L 540 673 L 540 668 L 539 667 L 523 667 L 523 733 L 541 733 L 541 694 L 542 693 L 542 692 L 543 691 L 543 690 L 547 686 L 548 686 L 549 685 L 550 685 L 551 684 L 557 684 L 558 683 L 559 684 L 563 684 L 563 667 L 562 666 Z" fill="black" /><path d="M 338 666 L 337 667 L 335 667 L 334 668 L 333 668 L 332 669 L 331 669 L 329 671 L 328 671 L 325 674 L 324 673 L 324 667 L 307 667 L 307 733 L 325 733 L 325 693 L 326 692 L 326 689 L 327 688 L 327 687 L 331 683 L 332 683 L 333 682 L 342 682 L 343 683 L 344 683 L 347 686 L 347 688 L 348 689 L 348 692 L 349 693 L 349 733 L 366 733 L 366 692 L 367 691 L 367 689 L 368 688 L 368 687 L 373 682 L 376 682 L 377 681 L 379 681 L 380 682 L 383 682 L 388 687 L 388 689 L 389 690 L 389 733 L 407 733 L 407 685 L 406 684 L 406 682 L 405 681 L 405 679 L 404 678 L 404 677 L 403 676 L 403 675 L 398 670 L 397 670 L 396 669 L 395 669 L 394 668 L 393 668 L 392 667 L 390 667 L 389 666 L 377 666 L 376 667 L 374 667 L 373 668 L 372 668 L 371 669 L 370 669 L 369 670 L 368 670 L 363 675 L 362 675 L 356 669 L 355 669 L 354 668 L 353 668 L 352 667 L 349 667 L 348 666 Z" fill="black" /><path d="M 838 650 L 838 666 L 837 667 L 829 667 L 828 668 L 829 669 L 829 680 L 828 681 L 828 682 L 837 682 L 838 683 L 838 719 L 839 720 L 839 722 L 840 723 L 840 724 L 841 725 L 841 726 L 846 731 L 847 731 L 848 732 L 849 732 L 850 733 L 852 733 L 853 734 L 866 734 L 867 733 L 871 733 L 871 718 L 869 718 L 868 719 L 861 719 L 860 718 L 859 718 L 856 715 L 856 713 L 855 712 L 855 683 L 856 682 L 871 682 L 871 667 L 856 667 L 855 666 L 855 650 Z" fill="black" /><path d="M 444 642 L 444 733 L 462 733 L 462 707 L 464 705 L 465 706 L 470 706 L 471 705 L 472 706 L 473 705 L 485 705 L 486 704 L 489 704 L 490 703 L 492 703 L 493 702 L 494 702 L 495 701 L 496 701 L 497 700 L 498 700 L 500 698 L 501 698 L 507 692 L 507 691 L 509 689 L 509 688 L 510 687 L 510 686 L 511 685 L 511 682 L 512 681 L 512 668 L 511 667 L 511 664 L 510 663 L 510 662 L 509 661 L 509 660 L 508 659 L 508 658 L 506 656 L 506 655 L 501 650 L 500 650 L 497 647 L 496 647 L 495 646 L 494 646 L 493 645 L 491 645 L 490 644 L 488 644 L 487 643 L 484 643 L 483 642 Z" fill="black" /><path d="M 152 642 L 152 733 L 192 733 L 193 732 L 196 732 L 197 731 L 199 731 L 200 730 L 202 730 L 203 729 L 204 729 L 205 728 L 206 728 L 207 727 L 208 727 L 209 726 L 210 726 L 213 723 L 214 723 L 220 717 L 220 716 L 222 714 L 222 713 L 224 711 L 224 710 L 225 709 L 225 707 L 226 706 L 226 705 L 227 704 L 227 702 L 228 701 L 228 697 L 229 696 L 229 680 L 228 679 L 228 676 L 227 675 L 227 672 L 226 671 L 226 670 L 225 669 L 225 667 L 224 666 L 224 665 L 222 663 L 222 662 L 220 660 L 220 659 L 213 652 L 212 652 L 210 650 L 209 650 L 207 648 L 206 648 L 205 647 L 204 647 L 203 646 L 202 646 L 201 645 L 199 645 L 198 644 L 195 644 L 194 643 L 190 643 L 189 642 Z" fill="black" /><path d="M 660 638 L 659 639 L 657 639 L 654 642 L 654 644 L 653 645 L 653 650 L 654 651 L 654 653 L 658 657 L 660 657 L 661 658 L 665 658 L 666 657 L 668 657 L 669 656 L 670 656 L 671 655 L 671 654 L 672 653 L 672 652 L 673 651 L 673 644 L 672 643 L 672 642 L 670 640 L 669 640 L 668 639 L 667 639 L 666 638 Z" fill="black" /><path d="M 507 181 L 506 182 L 504 182 L 503 183 L 502 183 L 500 185 L 499 185 L 495 189 L 495 190 L 493 192 L 493 193 L 492 194 L 492 196 L 491 197 L 491 252 L 492 253 L 492 255 L 493 256 L 493 257 L 494 258 L 494 259 L 495 260 L 495 261 L 499 265 L 500 265 L 502 267 L 504 267 L 505 268 L 507 268 L 508 269 L 571 269 L 572 270 L 572 295 L 571 296 L 436 296 L 435 295 L 435 247 L 434 246 L 434 245 L 433 244 L 433 243 L 432 242 L 432 241 L 431 240 L 430 240 L 428 238 L 427 238 L 426 237 L 425 237 L 424 236 L 382 236 L 381 237 L 379 237 L 378 238 L 377 238 L 372 243 L 372 244 L 371 245 L 371 247 L 370 248 L 370 294 L 369 295 L 367 295 L 366 296 L 362 296 L 361 297 L 360 297 L 359 298 L 358 298 L 357 299 L 356 299 L 355 300 L 354 300 L 346 308 L 346 309 L 345 310 L 345 311 L 344 312 L 344 313 L 343 314 L 343 316 L 342 317 L 342 379 L 341 380 L 341 382 L 340 383 L 340 385 L 339 386 L 339 387 L 338 388 L 338 390 L 337 391 L 337 393 L 336 394 L 336 395 L 335 396 L 335 398 L 334 399 L 334 400 L 333 401 L 333 403 L 332 404 L 332 406 L 331 407 L 331 408 L 330 409 L 330 411 L 329 412 L 329 413 L 328 414 L 328 416 L 327 417 L 327 418 L 326 419 L 326 421 L 325 422 L 325 424 L 324 425 L 324 426 L 323 427 L 323 429 L 322 430 L 322 431 L 321 432 L 321 434 L 320 435 L 320 436 L 319 437 L 319 439 L 318 440 L 318 442 L 317 443 L 317 444 L 316 445 L 316 447 L 315 448 L 315 449 L 314 450 L 314 452 L 313 453 L 313 454 L 312 455 L 312 457 L 311 458 L 311 459 L 310 460 L 310 462 L 309 463 L 309 464 L 308 465 L 308 467 L 307 468 L 307 469 L 306 470 L 306 472 L 305 473 L 305 474 L 304 475 L 304 477 L 303 478 L 303 480 L 302 481 L 302 567 L 303 568 L 303 571 L 304 572 L 304 573 L 305 574 L 305 575 L 306 576 L 306 577 L 308 579 L 308 580 L 314 586 L 315 586 L 317 588 L 318 588 L 319 589 L 321 589 L 322 590 L 324 590 L 325 591 L 694 591 L 695 590 L 697 590 L 698 589 L 700 589 L 701 588 L 702 588 L 703 587 L 704 587 L 706 585 L 707 585 L 713 579 L 713 578 L 715 576 L 715 575 L 716 574 L 716 572 L 717 571 L 717 569 L 718 568 L 718 564 L 719 563 L 719 482 L 718 481 L 718 479 L 717 478 L 717 476 L 716 475 L 716 474 L 715 473 L 715 471 L 714 470 L 714 469 L 713 468 L 713 466 L 712 465 L 712 464 L 711 463 L 711 461 L 710 460 L 710 459 L 709 458 L 709 456 L 708 455 L 708 454 L 707 453 L 707 451 L 706 450 L 706 449 L 705 448 L 705 446 L 704 445 L 704 444 L 703 443 L 703 441 L 702 440 L 702 439 L 701 438 L 701 436 L 700 435 L 700 434 L 699 433 L 699 431 L 698 430 L 698 429 L 697 428 L 697 426 L 696 425 L 696 424 L 695 423 L 695 421 L 694 420 L 694 419 L 693 418 L 693 416 L 692 415 L 692 414 L 691 413 L 691 411 L 690 410 L 690 408 L 689 407 L 689 406 L 688 405 L 688 403 L 687 402 L 687 401 L 686 400 L 686 398 L 685 397 L 685 396 L 684 395 L 684 393 L 683 392 L 683 391 L 682 390 L 682 388 L 681 387 L 681 386 L 680 385 L 680 383 L 679 382 L 679 381 L 678 380 L 678 318 L 677 317 L 677 314 L 676 313 L 676 312 L 675 311 L 675 310 L 674 309 L 674 308 L 666 300 L 665 300 L 664 299 L 663 299 L 662 298 L 661 298 L 660 297 L 658 297 L 657 296 L 594 296 L 593 295 L 593 270 L 594 269 L 657 269 L 658 268 L 660 268 L 661 267 L 663 267 L 665 265 L 666 265 L 669 262 L 669 261 L 671 259 L 671 258 L 672 257 L 672 255 L 673 254 L 673 196 L 672 195 L 672 193 L 671 192 L 671 191 L 668 188 L 668 187 L 667 187 L 664 184 L 663 184 L 662 183 L 661 183 L 660 182 L 658 182 L 657 181 Z" fill="black" /></svg>